<svg xmlns="http://www.w3.org/2000/svg" xmlns:xlink="http://www.w3.org/1999/xlink" version="1.1" x="0px" y="0px" width="100px" height="100px" viewBox="0 0 100 100" enable-background="new 0 0 100 100" xml:space="preserve">

<g id="Your_Icon">
	<g>
		<path fill="none" d="M17.647,32.227c-0.314-0.142-0.622-0.322-0.886-0.542c-0.421-0.351-0.829-0.718-1.172-1.14    c0.028,0.06,0.056,0.12,0.083,0.179c0.002,0.005,0.004,0.01,0.006,0.014c0.221,0.218,0.449,0.428,0.684,0.629    c0.117,0.1,0.234,0.198,0.354,0.293c0.017,0.015,0.042,0.033,0.066,0.052c0.022,0.017,0.045,0.034,0.069,0.052    c0.225,0.165,0.453,0.325,0.687,0.475c0.235,0.151,0.474,0.295,0.718,0.43c0.136,0.038,0.266,0.086,0.391,0.142    C18.343,32.574,18.005,32.389,17.647,32.227z"/>
		<path fill="none" d="M36.765,89.082c0.023-0.008,0.048-0.014,0.072-0.021c0.009-0.006,0.018-0.011,0.031-0.018    c0.06-0.036,0.118-0.073,0.175-0.114c0.061-0.045,0.122-0.092,0.183-0.139C37.069,88.877,36.915,88.974,36.765,89.082z"/>
		<path fill="none" d="M31.87,89.362c0.053,0.019,0.106,0.037,0.161,0.053c-0.193-0.155-0.398-0.27-0.641-0.315    c0.039,0.025,0.078,0.052,0.119,0.076c0.106,0.062,0.214,0.125,0.327,0.175C31.845,89.354,31.855,89.357,31.87,89.362z"/>
		<path d="M90.354,17.783c-0.223-1.074-0.506-2.133-0.935-3.148c-0.442-1.045-0.95-2.05-1.747-2.879    c-0.493-0.516-0.971-1.049-1.49-1.536c-0.748-0.701-1.347-1.566-2.328-2.064c0.002-0.002,0.004-0.005,0.006-0.008    c-0.143-0.071-0.283-0.149-0.42-0.232C83.333,7.94,83.218,7.9,83.1,7.84c-0.102-0.052-0.177-0.156-0.279-0.204    c-0.19-0.091-0.39-0.21-0.592-0.223c-0.512-0.035-1.029-0.055-1.54-0.016c-0.601,0.045-1.165,0.021-1.747-0.197    c-0.816-0.305-1.675-0.334-2.554-0.255c-1.013,0.091-1.975,0.354-2.862,0.792c-0.781,0.386-1.513,0.904-2.197,1.449    c-0.764,0.607-1.449,1.311-2.168,1.975c-0.086,0.079-0.171,0.16-0.251,0.243c-0.531,0.546-1.091,1.07-1.585,1.649    c-0.595,0.696-1.063,1.484-1.488,2.295c-0.071,0.139-0.171,0.262-0.259,0.392c-0.069-0.131-0.071-0.231-0.038-0.318    c0.232-0.603,0.445-1.216,0.721-1.798c0.257-0.545,0.485-1.081,0.553-1.692c0.094-0.841-0.562-1.511-1.387-1.349    c-0.57,0.113-1.118,0.285-1.63,0.583c-0.671,0.391-1.362,0.749-2.044,1.12c-0.182,0.099-0.348,0.248-0.637,0.191    c0.132-0.305,0.222-0.592,0.371-0.844c0.592-1,1.154-2.013,1.621-3.077c0.153-0.348,0.291-0.712,0.361-1.084    c0.169-0.905-0.523-1.684-1.567-1.781c-0.388-0.037-0.774-0.068-1.147,0.17c-0.348,0.219-0.749,0.353-1.121,0.535    c-0.669,0.329-1.358,0.623-1.994,1.005c-1.152,0.692-2.274,1.431-3.402,2.16C53.15,10.264,52.09,11,51.14,11.886    c-0.176,0.165-0.389,0.291-0.585,0.435c-0.046-0.026-0.093-0.052-0.141-0.079c0.049-0.199,0.087-0.402,0.152-0.597    c0.209-0.641,0.328-1.291,0.175-1.96c-0.064-0.279-0.157-0.548-0.453-0.678c-0.258-0.113-0.508-0.256-0.778-0.333    c-0.524-0.149-1.046-0.203-1.475,0.26c-0.087,0.095-0.211,0.157-0.323,0.226c-0.749,0.46-1.521,0.887-2.243,1.384    c-0.958,0.661-1.751,1.517-2.583,2.325c-0.117,0.113-0.241,0.223-0.378,0.312c-0.667,0.435-1.339,0.859-2.008,1.291    c-0.851,0.548-1.696,1.106-2.55,1.646c-0.42,0.266-0.575,0.221-0.85-0.205c-0.081-0.126-0.149-0.258-0.225-0.388    c-0.38-0.666-0.802-1.302-1.353-1.842c-0.475-0.464-0.935-0.949-1.436-1.384c-0.474-0.411-0.958-0.837-1.502-1.14    c-0.953-0.528-1.939-0.984-2.954-1.392c-0.375-0.067-0.754-0.121-1.132-0.173c0.126,0.019,0.253,0.035,0.379,0.052    c-0.672-0.091-1.331-0.246-1.999-0.351c-0.302-0.03-0.604-0.035-0.906-0.006c-0.622,0.093-1.242,0.205-1.863,0.296    c-0.369,0.054-0.737,0.109-1.102,0.186c-0.153,0.031-0.309,0.062-0.459,0.106c-0.077,0.022-0.299,0.112-0.325,0.118    c-0.538,0.26-1.042,0.583-1.562,0.877c-0.596,0.337-1.179,0.668-1.727,1.083c-0.005,0.004-0.01,0.008-0.016,0.012    c-0.013,0.011-0.027,0.021-0.041,0.031c-0.067,0.056-0.136,0.11-0.205,0.167c-0.135,0.111-0.27,0.226-0.402,0.341    c-0.262,0.229-0.521,0.466-0.771,0.708c-0.495,0.478-0.978,0.971-1.433,1.485c-0.126,0.144-0.252,0.288-0.37,0.438    c-0.01,0.013-0.024,0.03-0.038,0.048c-0.027,0.036-0.055,0.071-0.082,0.109c-0.185,0.254-0.361,0.517-0.521,0.787    c-0.174,0.292-0.336,0.589-0.481,0.896c-0.043,0.09-0.084,0.182-0.126,0.273c-0.028,0.073-0.11,0.27-0.132,0.332    c-0.223,0.601-0.397,1.218-0.599,1.827c-0.118,0.358-0.235,0.719-0.331,1.085c-0.022,0.118-0.042,0.236-0.061,0.354    c-0.078,0.696-0.084,1.407-0.104,2.105c-0.018,0.653-0.016,1.305,0.054,1.955c0.118,0.733,0.317,1.464,0.531,2.174    c0.111,0.369,0.229,0.735,0.367,1.094c0.034,0.088,0.069,0.177,0.104,0.266c0.004,0.007,0.006,0.012,0.009,0.017    c0.078,0.148,0.162,0.292,0.258,0.428c0.227,0.323,0.492,0.626,0.689,0.969c0.13,0.224,0.243,0.457,0.352,0.69    c0.344,0.422,0.751,0.789,1.172,1.14c0.265,0.22,0.572,0.4,0.886,0.542c0.358,0.162,0.696,0.348,0.999,0.585    c0.245,0.109,0.474,0.245,0.705,0.382c0.019,0.01,0.039,0.021,0.058,0.031c0.064,0.025,0.127,0.048,0.191,0.07    c0.253,0.091,0.509,0.171,0.769,0.243c0.276,0.077,0.511,0.232,0.689,0.438c0.167,0.092,0.304,0.247,0.441,0.394    c0.178,0.188,0.223,0.391,0.106,0.637c-0.069,0.146-0.096,0.314-0.134,0.474c-0.283,1.193-0.549,2.39-0.851,3.579    c-0.171,0.674-0.407,1.332-0.601,2.002c-0.201,0.7-0.369,1.411-0.588,2.104c-0.138,0.441-0.325,0.87-0.522,1.288    c-0.241,0.506-0.525,0.995-0.777,1.497c-0.216,0.43-0.412,0.869-0.617,1.304c-0.056,0.121-0.125,0.236-0.162,0.362    c-0.2,0.661-0.334,1.349-0.603,1.98c-0.299,0.697-0.344,1.444-0.569,2.151c-0.08,0.252-0.144,0.516-0.166,0.777    c-0.071,0.844-0.122,1.688-0.383,2.504c-0.048,0.152-0.082,0.311-0.112,0.469c-0.001,0.062-0.002,0.121-0.004,0.181    c-0.005,0.295-0.013,0.588-0.02,0.881c-0.012,0.603-0.022,1.206-0.01,1.809c0.012,0.604,0.041,1.207,0.109,1.806    c0.022,0.189,0.056,0.433,0.116,0.737c0.052,0.262,0.101,0.53,0.186,0.783c0.014,0.043,0.03,0.087,0.045,0.13    c0.005,0.009,0.011,0.021,0.019,0.04c0.049,0.096,0.101,0.192,0.162,0.28c0.013,0.021,0.061,0.078,0.075,0.098    c0.009,0.01,0.017,0.02,0.025,0.028c0.053,0.056,0.107,0.11,0.165,0.162c0.007,0,0.159,0.112,0.195,0.133    c0.045,0.025,0.297,0.136,0.182,0.096c0.086,0.031,0.171,0.06,0.258,0.079c0.057,0.015,0.116,0.027,0.174,0.038    c0.271,0.021,0.55,0.02,0.821,0.001c-0.006,0,0.292-0.033,0.146-0.008c0.062-0.01,0.125-0.021,0.186-0.036    c0.083-0.02,0.165-0.043,0.244-0.068c0.004-0.002,0.005-0.003,0.009-0.006c0.027-0.016,0.158-0.115,0.092-0.06    c0.02-0.016,0.04-0.032,0.06-0.049c0.057-0.05,0.114-0.099,0.173-0.147c0.148-0.189,0.305-0.373,0.459-0.558    c0.279-0.334,0.519-0.696,0.797-1.032c0.13-0.189,0.264-0.378,0.396-0.566c0.136-0.19,0.278-0.404,0.611-0.506    c0,0.216,0.001,0.375,0,0.536c-0.005,0.531-0.026,1.064-0.013,1.596c0.018,0.767-0.056,1.519-0.173,2.279    c-0.139,0.898-0.186,1.814-0.205,2.725c-0.017,0.729,0.02,1.466,0.121,2.187c0.07,0.501,0.23,1.01,0.457,1.462    c0.219,0.435,0.561,0.812,0.877,1.194c0.401,0.185,0.829,0.314,1.243,0.343c0.564,0.038,1.022,0.072,1.529-0.221    c0.208-0.121,0.342-0.176,0.55-0.238c0.148-0.163,0.302-0.321,0.45-0.484c0.092-0.101,0.177-0.21,0.305-0.365    c0.059,0.14,0.101,0.197,0.103,0.254c0.016,0.512,0.025,1.024,0.035,1.536c0.017,0.946,0.008,1.893,0.057,2.836    c0.034,0.645,0.169,1.28,0.225,1.923c0.079,0.918,0.304,1.803,0.597,2.668c0.379,1.115,0.806,2.215,1.202,3.324    c0.01,0.031,0.022,0.062,0.034,0.093c0,0.002,0.001,0.004,0.002,0.006c0.248,0.562,0.39,1.136,0.517,1.734    c0.059,0.269,0.114,0.539,0.199,0.801c0.035,0.112,0.075,0.221,0.12,0.329c0.014,0.032,0.027,0.065,0.042,0.1    c0.013,0.03,0.031,0.072,0.039,0.088c0.222,0.5,0.471,0.991,0.773,1.448c0.079,0.119,0.16,0.237,0.246,0.353    c0.021,0.026,0.046,0.059,0.054,0.069c0.042,0.05,0.084,0.103,0.128,0.151c0.173,0.195,0.357,0.382,0.56,0.545    c0.027,0.02,0.055,0.041,0.083,0.061c0.013,0.009,0.027,0.018,0.041,0.027c0.243,0.046,0.448,0.16,0.641,0.315    c0.007,0.001,0.012,0.004,0.018,0.005c0.062,0.017,0.124,0.033,0.186,0.045c0.028,0.007,0.126,0.02,0.131,0.021    c0.744,0.063,1.506-0.01,2.245-0.093c0.223-0.024,0.445-0.052,0.667-0.079c0.095-0.012,0.19-0.023,0.285-0.035    c0.11-0.016,0.125-0.017,0.042-0.004c0.077-0.01,0.152-0.021,0.229-0.031c0.084-0.012,0.169-0.021,0.254-0.032    c0.004,0,0.217-0.031,0.164-0.021c0.156-0.023,0.312-0.05,0.464-0.094c0.017-0.004,0.034-0.009,0.05-0.015    c0.149-0.108,0.304-0.205,0.461-0.292c0.051-0.039,0.103-0.078,0.157-0.115c0.27-0.188,0.552-0.298,0.864-0.354    c0.1-0.042,0.2-0.086,0.296-0.138c1.12-0.607,2.239-1.218,3.358-1.828c0.845-0.459,1.691-0.916,2.391-1.597    c0.088-0.084,0.211-0.132,0.353-0.218c0.274,0.665,0.386,1.317,0.401,1.978c0.02,0.861,0.007,1.727-0.038,2.588    c-0.023,0.457-0.123,0.914-0.227,1.362c-0.055,0.236-0.191,0.455-0.293,0.68c-0.091,0.196-0.168,0.4-0.283,0.58    c-0.353,0.558-0.66,1.142-1.099,1.647c-0.28,0.322-0.446,0.739-0.698,1.088c-0.031,0.043-0.063,0.086-0.095,0.129    c-0.014,0.032-0.026,0.061-0.025,0.056c-0.01,0.024-0.021,0.051-0.031,0.075c-0.037,0.097-0.073,0.191-0.106,0.287    c-0.068,0.19-0.131,0.383-0.179,0.579c-0.031,0.12-0.06,0.241-0.082,0.363c-0.005,0.031-0.01,0.063-0.016,0.095    c-0.001,0.011-0.002,0.023-0.004,0.04c-0.016,0.193-0.023,0.387-0.006,0.579c-0.001-0.043,0.041,0.211,0.053,0.255    c0.01,0.035,0.099,0.266,0.052,0.171c0.009,0.02,0.019,0.04,0.029,0.06c0.306,0.383,0.515,0.794,0.849,1    c0.734,0.454,1.565,0.467,2.334,0.07c0.75-0.387,1.466-0.844,2.18-1.299c1.876-1.191,3.465-2.726,5.007-4.307    c0.961-0.987,1.783-2.088,2.499-3.268c0.151-0.251,0.312-0.492,0.442-0.76c0.158-0.322,0.287-0.706,0.637-0.916    c0.226,0.331,0.303,0.576,0.336,1.19c0.049,0.895,0.105,1.784,0.309,2.666c0.125,0.547,0.115,1.122,0.204,1.678    c0.027,0.175,0.039,0.342,0.031,0.51c0.021,0.121,0.03,0.243,0.032,0.366c0.007,0.025,0.014,0.051,0.021,0.076    c0.072,0.248,0.152,0.493,0.244,0.735c0.043,0.111,0.085,0.223,0.131,0.335c0.005,0.01,0.008,0.02,0.012,0.027    c0.001,0.003,0.002,0.006,0.004,0.01c0.045,0.083,0.079,0.17,0.103,0.263c0.063,0.225,0.114,0.455,0.189,0.676    c0.004,0.01,0.012,0.028,0.021,0.051c0.114,0.083,0.218,0.181,0.303,0.284c0.012,0.015,0.023,0.03,0.036,0.046    c0.091,0.048,0.182,0.095,0.272,0.14c0.153,0.079,0.291,0.166,0.426,0.263c0.1,0.025,0.199,0.051,0.295,0.083    c0.179,0.06,0.39,0.04,0.585,0.039c0.404-0.006,0.699-0.275,1.04-0.44c0.538-0.26,0.94-0.682,1.327-1.107    c0.434-0.475,0.823-0.997,1.196-1.523c0.354-0.498,0.721-0.999,0.98-1.547c0.44-0.927,0.938-1.831,1.19-2.842    c0.229-0.916,0.579-1.811,0.73-2.738c0.147-0.904,0.302-1.787,0.646-2.645c0.395-0.984,0.704-2.005,1.061-3.006    c0.161-0.453,0.374-0.889,0.519-1.347c0.262-0.84,0.499-1.688,0.729-2.537c0.116-0.431,0.218-0.87,0.29-1.31    c0.091-0.556,0.129-1.122,0.219-1.678c0.123-0.77,0.269-1.534,0.418-2.3c0.032-0.168,0.118-0.325,0.189-0.509    c0.341,0.242,0.517,0.518,0.595,0.85c0.084,0.354,0.161,0.713,0.219,1.074c0.06,0.36,0.106,0.724,0.159,1.088    c0.041,0.068,0.069,0.146,0.081,0.229c0.018,0.118,0.039,0.236,0.077,0.349c0.008,0.026,0.031,0.078,0.04,0.102    c0,0.001,0.001,0.001,0.001,0.003c0.03,0.053,0.168,0.237,0.134,0.203c0.039,0.044,0.079,0.086,0.123,0.125    c0.019,0.019,0.038,0.035,0.058,0.052c0.022,0.016,0.049,0.036,0.063,0.046c0.076,0.049,0.153,0.097,0.233,0.139    c0.057,0.028,0.112,0.056,0.168,0.083c0.036,0.012,0.163,0.062,0.197,0.074c0.382,0.127,0.776,0.213,1.174,0.272    c0.033,0.004,0.067,0.009,0.101,0.014c0.021,0.003,0.042,0.006,0.055,0.007c0.089,0.011,0.176,0.021,0.264,0.03    c0.196,0.021,0.411,0.021,0.604,0.069c0.076-0.021,0.156-0.034,0.239-0.034c0.024,0,0.051,0.001,0.075,0.004    c0.003-0.002,0.004-0.003,0.007-0.004c0.301-0.128,0.603-0.216,0.912-0.317c0.078-0.024,0.154-0.049,0.231-0.078    c0.015-0.005,0.188-0.083,0.139-0.057c0.103-0.051,0.204-0.104,0.299-0.169c0.008-0.005,0.167-0.127,0.122-0.088    c0.031-0.024,0.062-0.05,0.092-0.075c0.103-0.089,0.203-0.18,0.299-0.275c0.114-0.115,0.226-0.233,0.331-0.358    c0.041-0.051,0.083-0.1,0.123-0.15c0.007-0.01,0.022-0.03,0.046-0.062c0.161-0.222,0.312-0.449,0.449-0.686    c0.052-0.085,0.099-0.17,0.144-0.251c0.153-0.494,0.287-0.992,0.42-1.491c0.296-1.116,0.542-2.241,0.708-3.385    c0.011-0.09,0.021-0.181,0.031-0.271c0.007-0.396,0-0.794-0.017-1.191c-0.012-0.282-0.024-0.563-0.022-0.844    c0.006-0.532,0.002-1.064,0.038-1.595c0.04-0.562,0.094-1.124,0.192-1.677c0.23-1.292,0.509-2.574,0.734-3.866    c0.062-0.352,0.004-0.725,0.003-1.088v-0.659c0.207,0.082,0.339,0.15,0.48,0.187c0.352,0.091,0.703,0.193,1.062,0.244    c0.472,0.067,0.833-0.147,1.12-0.517c0.118-0.151,0.26-0.291,0.406-0.419c0.242-0.212,0.393-0.668,0.319-0.941    c-0.179-0.671-0.366-1.343-0.51-2.021c-0.099-0.469-0.122-0.954-0.198-1.429c-0.1-0.617-0.072-0.652,0.561-0.564    c0.016,0.002,0.032,0.004,0.049,0.006c0.569,0.061,0.859-0.15,0.987-0.715c0.021-0.097,0.057-0.189,0.08-0.287    c0.187-0.792,0.457-1.574,0.54-2.376c0.161-1.549,0.453-3.093,0.283-4.666c-0.024-0.227,0.039-0.463,0.037-0.694    c-0.006-1.162,0.022-2.325-0.043-3.483c-0.068-1.21-0.293-2.408-0.206-3.628c0.048-0.662,0.026-1.33,0.083-1.99    c0.067-0.793-0.127-1.512-0.479-2.209c-0.095-0.189-0.16-0.401-0.205-0.61c-0.059-0.254,0.047-0.44,0.284-0.572    c0.751-0.422,1.504-0.841,2.24-1.289c1.135-0.689,2.07-1.565,2.468-2.883c0.276-0.92,0.535-1.849,0.755-2.783    c0.099-0.416,0.103-0.857,0.115-1.288c0.029-1.011-0.016-2.022,0.2-3.027C90.547,19.111,90.49,18.435,90.354,17.783z     M87.821,23.883c-0.069,0.408-0.229,0.754-0.434,1.076c-0.072,0.233-0.171,0.452-0.267,0.679    c-0.391,0.917-1.234,1.563-2.059,2.072c-0.784,0.483-1.628,0.818-2.475,1.165c-0.248,0.113-0.486,0.243-0.713,0.395    c-0.273,0.236-0.526,0.5-0.759,0.775c-0.023,0.035-0.046,0.07-0.066,0.106c-0.042,0.145-0.07,0.294-0.093,0.445    c-0.005,0.034-0.009,0.066-0.013,0.1c0.023,0.138,0.047,0.277,0.063,0.416c0.043,0.105,0.074,0.214,0.097,0.329    c0.065,0.167,0.115,0.333,0.153,0.506c0.085,0.219,0.129,0.395,0.162,0.659c0.266,1.085,0.525,2.173,0.776,3.262    c0.021,0.098,0.018,0.204,0.004,0.311c0.005,0.043,0.009,0.088,0.012,0.132c0.04,0.249,0.049,0.502,0.018,0.749    c0,0.144-0.018,0.283-0.051,0.417c0,0.022,0.002,0.044,0.002,0.066c0,0.044-0.003,0.088-0.006,0.132    c0.003,0.044,0.006,0.088,0.006,0.134c0,0.057-0.003,0.113-0.01,0.169c0.003,0.016,0.004,0.03,0.007,0.044    c0.02,0.1,0.036,0.2,0.04,0.301c0.038,1.094,0.058,2.19,0.104,3.286c0.019,0.462,0.049,0.931,0.144,1.382    c0.161,0.764,0.094,1.519,0.015,2.28c-0.008,0.077-0.059,0.149-0.085,0.213c-0.249,0.057-0.313-0.12-0.381-0.264    c-0.376-0.805-0.932-1.489-1.453-2.196c-0.415-0.565-0.984-0.934-1.581-1.267c-0.274-0.153-0.553-0.297-0.832-0.441    c-0.367-0.188-0.725-0.402-1.108-0.546c-0.224-0.083-0.492-0.083-0.734-0.062c-0.393,0.037-0.551,0.236-0.533,0.632    c0.011,0.231,0.039,0.467,0.103,0.689c0.344,1.213,0.686,2.427,1.348,3.524c0.531,0.879,1.009,1.79,1.502,2.691    c0.105,0.193,0.259,0.392,0.15,0.665c-0.333-0.027-0.532-0.27-0.781-0.415c-0.327-0.192-0.644-0.414-0.992-0.553    c-0.513-0.207-1.021,0.182-1.019,0.737c0.01,1.629,0.127,3.249,0.319,4.868c0.151,1.269,0.26,2.538,0.165,3.824    c-0.118,1.623-0.137,3.252-0.205,4.878c-0.012,0.28-0.041,0.562-0.091,0.84c-0.211,1.142-0.422,2.286-0.654,3.424    c-0.153,0.748-0.331,1.492-0.517,2.231c-0.163,0.645-0.354,1.28-0.528,1.92c-0.069,0.256-0.164,0.495-0.399,0.73    c-0.28-0.385-0.54-0.743-0.802-1.1c-0.117-0.16-0.237-0.318-0.357-0.477c-0.168-0.224-0.328-0.453-0.506-0.669    c-0.114-0.142-0.233-0.288-0.381-0.388c-0.245-0.166-0.393-0.382-0.511-0.652c-0.354-0.805-0.753-1.593-1.105-2.398    c-0.278-0.642-0.845-0.784-1.435-0.907c-0.096-0.021-0.197-0.012-0.293-0.033c-0.485-0.107-0.577-0.058-0.849,0.351    c-0.188,0.286-0.43,0.535-0.613,0.822c-0.114,0.175-0.222,0.387-0.233,0.588c-0.104,1.754-0.529,3.445-1.004,5.124    c-0.013,0.044-0.027,0.088-0.04,0.132c-0.018,0.725-0.144,1.45-0.314,2.151c-0.026,0.197-0.058,0.394-0.091,0.591    c-0.009,0.055-0.018,0.109-0.025,0.163c-0.009,0.087-0.015,0.173-0.012,0.26c0.003,0.081-0.009,0.16-0.03,0.235    c-0.004,0.122-0.021,0.245-0.051,0.371c-0.197,0.805-0.402,1.605-0.593,2.412c-0.188,0.79-0.377,1.582-0.539,2.38    c-0.136,0.666-0.197,1.35-0.364,2.007c-0.191,0.75-0.348,1.507-0.706,2.22c-0.538,1.065-0.946,2.193-1.452,3.276    c-0.206,0.444-0.521,0.837-0.781,1.257c-0.078,0.126-0.143,0.261-0.196,0.398c-0.187,0.485-0.501,0.884-0.86,1.373    c-0.099-0.18-0.187-0.278-0.206-0.389c-0.145-0.817-0.265-1.639-0.413-2.455c-0.178-0.978-0.383-1.95-0.561-2.928    c-0.067-0.375-0.083-0.759-0.145-1.136c-0.053-0.326-0.135-0.646-0.209-0.969c-0.025-0.112-0.091-0.223-0.09-0.335    c0.008-0.457-0.29-0.722-0.59-0.99c-0.012-0.011-0.025-0.028-0.038-0.029c-0.555-0.077-1.108-0.208-1.662-0.2    c-0.252,0.002-0.539,0.24-0.746,0.438c-0.64,0.615-1.117,1.354-1.487,2.161c-0.035,0.076-0.066,0.159-0.121,0.216    c-0.565,0.598-0.872,1.367-1.353,2.021c-0.412,0.561-0.819,1.124-1.223,1.691c-0.297,0.418-0.571,0.852-0.878,1.263    c-0.454,0.612-0.933,1.205-1.389,1.816c-0.259,0.344-0.48,0.716-0.739,1.061c-0.112,0.149-0.274,0.26-0.484,0.452    c-0.02-0.196-0.048-0.288-0.034-0.373c0.1-0.569,0.207-1.137,0.318-1.704c0.042-0.21,0.092-0.421,0.153-0.627    c0.477-1.612,0.873-3.244,0.874-4.934c0.001-0.824-0.136-1.649-0.235-2.472c-0.065-0.542-0.188-1.077-0.262-1.618    c-0.106-0.779-0.64-1.092-1.324-1.208c-0.34-0.056-0.7-0.044-1.043-0.009c-0.405,0.04-0.739,0.208-1.002,0.567    c-0.361,0.492-0.928,0.741-1.458,1.013c-0.871,0.446-1.771,0.837-2.625,1.312c-0.812,0.451-1.58,0.979-2.365,1.477    c-0.672,0.428-1.344,0.858-2.008,1.295c-0.236,0.154-0.455,0.336-0.683,0.502c-0.536,0.391-1.072,0.78-1.612,1.167    c-0.066,0.048-0.144,0.082-0.221,0.114c-0.61,0.268-0.679,0.225-1.002-0.356c-0.64-1.152-1.123-2.363-1.575-3.598    c-0.258-0.706-0.51-1.407-0.576-2.153c-0.057-0.627-0.043-1.261-0.039-1.892c0.002-0.721-0.13-1.414-0.295-2.113    c-0.243-1.033-0.413-2.084-0.613-3.126c-0.031-0.162-0.034-0.334-0.084-0.491c-0.279-0.869-0.137-1.732-0.003-2.604    c0.092-0.606,0.112-1.224,0.174-1.833c0.159-1.537,0.329-3.072,0.48-4.608c0.084-0.85-0.461-1.814-1.165-2.154    c-0.357-0.173-0.724-0.255-1.095-0.308c-1.281,0.124-1.738,1.471-2.179,2.526c-0.22,0.527-0.421,1.294-1.045,1.466    c-1.807,0.497-0.189-4.118-0.103-4.554c0.021-0.089,0.063-0.15,0.112-0.202c0.121-0.667,0.251-1.333,0.418-1.993    c0.353-1.399,0.639-2.817,0.925-4.233c0.25-1.232-0.28-2.145-1.46-2.599c-0.139-0.053-0.283-0.098-0.417-0.163    c-0.122-0.06-0.242-0.103-0.36-0.136c-0.651,0.16-1.205,0.477-1.728,1.066c-0.494,0.557-0.885,1.287-1.433,1.815    c-0.455,0.541-0.93,1.063-1.472,1.524c-0.324,0.275-0.75,0.1-0.829-0.256c-0.005-0.012-0.007-0.025-0.011-0.038    c-0.001-0.012-0.002-0.024-0.003-0.037c-0.008-0.046-0.019-0.091-0.011-0.147c0.1-0.78,0.281-1.537,0.584-2.248    c0-0.063,0.017-0.125,0.01-0.189c-0.012-0.116,0.019-0.203,0.065-0.277c0.206-1.578,0.924-3.168,1.459-4.588    c-0.009-0.109,0.019-0.223,0.071-0.339c0.319-0.711,0.579-1.459,0.974-2.126c0.689-1.166,1.041-2.434,1.342-3.732    c0.107-0.464,0.297-0.911,0.45-1.365c0.01-0.031,0.037-0.057,0.045-0.088c0.163-0.571,0.329-1.141,0.482-1.715    c0.013-0.052,0.022-0.105,0.03-0.16c-0.001-0.796,0.196-1.581,0.375-2.357c0.001-0.07,0.001-0.141,0.001-0.21    c0-0.04,0.005-0.078,0.014-0.113c0.006-0.277,0.018-0.553,0.042-0.827c0.022-0.256-0.051-0.462-0.195-0.649    c-0.367-0.471-0.68-0.975-0.996-1.481c-0.268-0.428-0.68-0.769-1.043-1.133c-0.882-0.881-1.833-1.681-2.807-2.462    c-0.64-0.514-1.17-1.175-1.7-1.812c-0.336-0.406-0.582-0.888-0.867-1.337c-0.184-0.29-0.279-0.609-0.253-0.949    c0.071-0.927,0.059-1.875,0.264-2.771c0.206-0.896,0.32-1.828,0.745-2.675c0.296-0.591,0.468-1.243,0.753-1.841    c0.269-0.565,0.594-1.102,0.924-1.634c0.209-0.338,0.464-0.646,0.708-0.962c0.583-0.75,1.336-1.286,2.198-1.665    c1.342-0.589,2.731-1.014,4.186-1.251c1.219-0.201,2.344,0.018,3.413,0.577c0.823,0.43,1.627,0.898,2.421,1.378    c0.814,0.491,1.419,1.187,1.878,2.018c0.402,0.726,0.788,1.465,1.259,2.145c0.546,0.789,1.323,1.258,2.321,1.155    c0.274-0.029,0.544-0.226,0.784-0.391c0.286-0.197,0.53-0.453,0.804-0.669c1.197-0.947,2.436-1.847,3.583-2.851    c0.7-0.613,1.39-1.223,2.172-1.732c0.341-0.222,0.647-0.497,1.068-0.827c0.018,0.25,0.063,0.38,0.028,0.484    c-0.21,0.644-0.45,1.278-0.653,1.924c-0.069,0.214-0.114,0.463-0.075,0.679c0.14,0.759,0.672,1.178,1.356,1.436    c0.873,0.331,1.559-0.086,2.169-0.613c0.866-0.748,1.662-1.578,2.532-2.323c0.436-0.374,0.959-0.649,1.457-0.946    c0.625-0.374,1.277-0.704,1.895-1.09c0.489-0.306,0.941-0.672,1.411-1.009c0.635-0.456,1.27-0.909,1.907-1.359    c0.05-0.035,0.12-0.042,0.237-0.081c-0.022,0.128-0.016,0.226-0.056,0.296c-0.447,0.776-0.905,1.546-1.354,2.322    c-0.123,0.214-0.202,0.455-0.333,0.664c-0.521,0.827-1.05,1.646-1.583,2.465c-0.242,0.373-0.289,0.759-0.139,1.207    c0.023-0.005,0.041-0.01,0.053-0.014c-0.012,0.01-0.01,0.028,0.05,0.048c0.483,0.159,1.364-0.222,1.754-0.438    c0.346-0.189,0.712-0.34,1.067-0.513c0.088-0.043,0.167-0.106,0.256-0.152c1.058-0.552,2.122-1.092,3.173-1.658    c0.363-0.195,0.688-0.458,1.035-0.687c0.128-0.083,0.262-0.157,0.393-0.235l0.088,0.07c-0.062,0.287-0.12,0.574-0.188,0.858    c-0.269,1.123-0.363,2.268-0.355,3.415c0.004,0.418,0.366,1.338,0.45,1.445c0.012,0.008,0.023,0.016,0.034,0.023    c0.129,0.069,0.722,0.375,1.205,0.582c0.108,0.014,0.219,0.021,0.331,0.015c0.344-0.013,0.69-0.034,1.034-0.079    c0.221-0.1,0.445-0.145,0.679-0.131c0.165-0.043,0.327-0.095,0.487-0.157c0.233-0.135,0.477-0.265,0.66-0.457    c0.302-0.312,0.507-0.698,0.684-1.092c0.184-0.409,0.372-0.846,0.6-1.236c0.039-0.156,0.099-0.309,0.182-0.453    c0.38-0.667,0.895-1.256,1.418-1.814c0.454-0.483,0.879-0.996,1.364-1.449c0.493-0.462,1.017-0.896,1.545-1.318    c0.31-0.249,0.616-0.514,0.955-0.724c0.266-0.165,0.555-0.283,0.844-0.399c0.653-0.31,1.262-0.742,1.976-0.905    c0.822-0.186,1.606-0.158,2.436-0.121c0.409,0.018,0.812,0.071,1.198,0.181c0.894,0.072,1.78,0.398,2.506,0.92    c2.028,1.463,3.392,3.724,4.219,6.054c0.485,1.37,0.467,2.86,0.561,4.294C87.887,22.402,87.947,23.133,87.821,23.883z"/>
		<path fill="none" d="M81.836,35.264c0.031,0.055,0.062,0.11,0.089,0.166c0.144,0.222,0.24,0.475,0.275,0.748    c0.014-0.106,0.018-0.213-0.004-0.311c-0.251-1.089-0.511-2.177-0.776-3.262c0.005,0.049,0.012,0.102,0.017,0.159    c0.023,0.229-0.035,0.456-0.067,0.683c-0.044,0.308-0.264,0.614-0.515,0.84C81.248,34.529,81.591,34.841,81.836,35.264z"/>
		<path fill="none" d="M31.134,25.51c-0.31,0.406-0.621,0.812-0.942,1.208c-0.248,0.308-0.556,0.513-0.974,0.523    c-0.178,0.005-0.357,0.061-0.531,0.105c-0.53,0.136-1.044,0.158-1.542-0.12c-0.317-0.175-0.639-0.349-0.975-0.483    c-0.622-0.247-1.004-0.753-1.376-1.256c-0.366-0.493-0.644-1.044-0.77-1.658c-0.094-0.456-0.001-0.835,0.328-1.186    c0.378-0.401,0.783-0.7,1.357-0.74c0.492-0.034,0.98-0.112,1.471-0.171c0.629-0.04,1.229,0.106,1.831,0.229    c0.444,0.089,0.799,0.33,1.012,0.736c0.147,0.278,0.353,0.458,0.63,0.604C31.487,23.74,31.701,24.765,31.134,25.51z     M52.016,29.565c0.061-0.118,0.143-0.226,0.203-0.344c0.424-0.833,1.163-1.238,2.018-1.489c0.125-0.038,0.273-0.068,0.359-0.152    c0.188-0.186,0.42-0.225,0.655-0.307c0.974-0.336,1.84,0.005,2.688,0.388c1.811,0.818,2.528,2.4,2.854,4.229    c0.057,0.327,0.072,0.662,0.083,0.993c0.02,0.684-0.22,1.262-0.729,1.73c-0.445,0.408-0.923,0.75-1.505,0.945    c-0.438,0.147-0.854,0.356-1.294,0.491c-0.345,0.105-0.71,0.14-1.065,0.207c-0.77-0.01-1.422-0.366-2.103-0.617    c-0.231-0.084-0.434-0.241-0.659-0.344c-0.551-0.25-0.834-0.756-1.15-1.215c-0.467-0.679-0.748-1.441-0.85-2.265    C51.418,31.005,51.656,30.271,52.016,29.565z M39.645,29.003c0.169-0.182,0.441-0.287,0.687-0.375    c0.692-0.248,1.429-0.269,2.147-0.383c0.153-0.025,0.327-0.077,0.438-0.177c0.357-0.323,0.95-0.42,1.424-0.258    c0.796,0.272,1.435,0.82,2.164,1.208c0.149,0.08,0.257,0.256,0.358,0.407c0.599,0.881,0.794,1.886,0.854,2.926    c0,0.1,0.016,0.203-0.001,0.3c-0.183,1.021-0.514,1.988-1.029,2.891c-0.246,0.431-0.65,0.678-1.089,0.826    c-0.792,0.269-1.604,0.374-2.45,0.204c-0.583-0.115-1.205-0.046-1.754-0.323c-0.322-0.162-0.657-0.333-0.921-0.571    c-0.723-0.653-1.31-1.411-1.588-2.369c-0.028-0.096-0.06-0.192-0.105-0.281C37.993,31.496,38.816,29.895,39.645,29.003z     M79.66,22.896c-0.569,1.25-1.701,1.746-2.882,2.167c-0.199,0.072-0.48,0.064-0.675-0.021c-0.695-0.3-1.402-0.599-2.047-0.991    c-0.774-0.471-1.238-1.191-1.281-2.125c-0.014-0.282-0.087-0.502-0.28-0.715c-0.26-0.286-0.255-0.621,0.012-0.895    c0.611-0.628,1.228-1.252,1.873-1.846c0.183-0.167,0.469-0.225,0.71-0.321c0.139-0.054,0.284-0.089,0.429-0.122    c0.205-0.048,0.411-0.085,0.572-0.118c0.847,0.122,1.632,0.238,2.42,0.35c0.604,0.085,1.018,0.445,1.196,0.994    c0.195,0.595,0.33,1.216,0.416,1.837C80.211,21.737,79.924,22.316,79.66,22.896z"/>
		<path fill="none" d="M66.206,20.324c-0.233-0.014-0.458,0.031-0.679,0.131C65.757,20.423,65.984,20.382,66.206,20.324z"/>
		<path fill-rule="evenodd" clip-rule="evenodd" d="M67.673,39.853c-0.254-0.202-0.588-0.306-0.833-0.518    c-0.279-0.242-0.611-0.326-0.938-0.433c-0.359-0.115-0.725-0.222-1.095-0.296c-0.453-0.092-0.912-0.16-1.372-0.214    c-0.56-0.066-1.121-0.119-1.684-0.157c-0.678-0.045-1.357-0.109-2.034-0.091c-1.426,0.039-2.851,0.117-4.275,0.197    c-0.76,0.042-1.52,0.117-2.279,0.189c-0.659,0.062-1.321,0.126-1.979,0.219c-0.738,0.105-1.473,0.239-2.207,0.373    c-0.994,0.182-1.989,0.365-2.98,0.565c-0.501,0.103-1,0.233-1.493,0.37c-1.323,0.365-2.682,0.621-3.913,1.271    c-0.071,0.038-0.16,0.043-0.237,0.07c-0.265,0.093-0.535,0.175-0.792,0.288c-0.506,0.222-1.006,0.463-1.51,0.692    c-0.042,0.02-0.097,0.009-0.144,0.018c-0.323,0.061-0.646,0.117-0.967,0.187c-0.218,0.048-0.432,0.114-0.672,0.178    c-0.039,0.182-0.096,0.374-0.122,0.57c-0.101,0.723-0.211,1.446-0.278,2.173c-0.035,0.388-0.253,1.342-0.243,1.431    c0.047,0.436-0.022,0.812,0.039,1.248c0.002,0.016,0.018,0.03,0.018,0.047c-0.008,1.155-0.008,1.324,0.082,2.148    c-0.011,0.192-0.035,0.351-0.028,0.506c0.028,0.614,0.071,1.226,0.101,1.84c0.074,1.516,0.323,3.008,0.674,4.478    c0.44,1.842,1.041,3.637,1.793,5.381c0.773,1.801,1.5,3.615,2.5,5.314c0.744,1.262,1.532,2.491,2.429,3.641    c0.781,1.001,1.804,1.72,3.078,1.983c0.549,0.113,1.117,0.177,1.677,0.187c0.612,0.014,1.228-0.04,1.838-0.104    c1.33-0.142,2.621-0.433,3.753-1.198c0.849-0.575,1.69-1.162,2.532-1.746c0.135-0.093,0.281-0.176,0.414-0.269    c0.428-0.408,0.787-0.869,1.166-1.334c0.271-0.332,0.555-0.647,0.857-0.939c0.071-0.103,0.146-0.204,0.225-0.301    c0.651-0.814,1.34-1.6,2-2.407c0.818-0.998,1.434-2.11,1.837-3.34c0.201-0.61,0.393-1.214,0.721-1.79    c1.056-1.856,2.204-3.658,3.228-5.534c0.435-0.795,0.809-1.615,1.038-2.461c0.383-1.407,0.607-2.855,0.514-4.333    c-0.03-0.48-0.036-0.966,0.006-1.445c0.126-1.489,0.31-2.974,0.268-4.474c-0.004-0.116,0.001-0.234,0.021-0.348    C68.543,40.921,68.259,40.318,67.673,39.853z M65.8,43.938c-0.025,0.812-0.096,1.624-0.123,2.435    c-0.054,1.543-0.316,3.033-0.986,4.44c-0.286,0.598-0.501,1.225-0.767,1.832c-0.332,0.759-0.688,1.507-1.019,2.267    c-0.298,0.685-0.572,1.38-0.858,2.068c-0.024,0.062-0.057,0.121-0.071,0.187c-0.277,1.221-1.017,2.214-1.633,3.267    c-0.679,1.16-1.394,2.3-2.052,3.471c-0.65,1.163-1.328,2.302-2.276,3.248c-0.41,0.408-0.901,0.737-1.315,1.142    c-0.457,0.447-1.053,0.673-1.554,1.048c-0.317,0.236-0.692,0.391-1.03,0.599c-0.619,0.382-1.264,0.708-1.954,0.941    c-0.186,0.063-0.353,0.182-0.531,0.273c-0.836,0.436-1.733,0.523-2.614,0.263c-1.035-0.307-1.95-0.839-2.522-1.824    c-0.232-0.402-0.5-0.784-0.758-1.17c-0.696-1.038-1.062-2.21-1.398-3.396c-0.366-1.294-0.796-2.565-1.25-3.834    c-0.694-1.938-1.21-3.933-1.466-5.99c-0.109-0.887-0.33-1.762-0.509-2.64c-0.193-0.944-0.412-1.881-0.592-2.825    c-0.264-1.372-0.222-2.751,0.048-4.11c0.095-0.479,0.438-0.857,0.966-0.963c0.667-0.135,1.337-0.248,2.004-0.38    c0.309-0.062,0.611-0.156,0.919-0.221c0.312-0.065,0.386-0.027,0.469,0.28c0.139,0.513,0.217,1.045,0.391,1.543    c0.311,0.89,0.625,1.781,0.978,2.648c0.379,0.934,0.963,1.782,1.72,2.482c0.876,0.81,1.746,1.628,2.638,2.421    c0.308,0.274,0.663,0.5,1.015,0.719c0.274,0.17,0.403,0.384,0.358,0.7c-0.154,1.067-0.314,2.133-0.468,3.2    c-0.078,0.541-0.127,1.088-0.23,1.624c-0.131,0.683-0.274,1.366-0.462,2.033c-0.318,1.127,0.507,2.056,1.57,2.099    c0.376,0.016,0.763-0.292,0.898-0.745c0.125-0.428,0.207-0.871,0.285-1.312c0.158-0.898,0.297-1.8,0.454-2.698    c0.026-0.148,0.101-0.288,0.151-0.433l0.117,0.005c0.049,0.112,0.103,0.223,0.143,0.337c0.188,0.532,0.363,1.068,0.564,1.595    c0.12,0.322,0.799,1.244,0.881,1.457c0.117,0.304,0.225,0.647,0.596,0.654c0.436,0.008,0.916,0.037,1.159-0.481    c0.098-0.209,0.257-0.389,0.358-0.595c0.264-0.536,0.264-0.536-0.17-1.218c-0.115-0.182-1.318-3.419-1.762-4.449    c-0.032-0.075-0.049-0.158-0.087-0.232c-0.548-1.092-0.062-1.957,0.581-2.812c0.42-0.556,0.805-1.14,1.173-1.731    c0.472-0.762,0.907-1.545,1.358-2.317c0.058-0.1,0.104-0.21,0.177-0.299c0.672-0.82,1.133-1.752,1.489-2.743    c0.338-0.935,0.759-1.844,0.843-2.854c0.02-0.231,0.043-0.463,0.082-0.692c0.057-0.33,0.159-0.423,0.494-0.441    c0.414-0.021,0.818,0.021,1.232,0.104c0.856,0.175,1.715,0.366,2.605,0.347c0.459-0.009,0.923,0.097,1.384,0.156    c0.193,0.023,0.3,0.144,0.31,0.332C65.776,43.144,65.814,43.542,65.8,43.938z"/>
		<path fill-rule="evenodd" clip-rule="evenodd" d="M60.875,32.885c-0.011-0.331-0.026-0.666-0.083-0.993    c-0.325-1.829-1.043-3.412-2.854-4.229c-0.848-0.383-1.714-0.724-2.688-0.388c-0.235,0.082-0.468,0.121-0.655,0.307    c-0.086,0.084-0.234,0.114-0.359,0.152c-0.854,0.25-1.594,0.655-2.018,1.489c-0.061,0.118-0.143,0.226-0.203,0.344    c-0.359,0.706-0.598,1.439-0.496,2.251c0.102,0.824,0.383,1.586,0.85,2.265c0.316,0.459,0.6,0.966,1.15,1.215    c0.226,0.103,0.428,0.259,0.659,0.344c0.681,0.25,1.333,0.606,2.103,0.617c0.355-0.066,0.721-0.101,1.065-0.207    c0.439-0.135,0.856-0.344,1.294-0.491c0.582-0.195,1.06-0.537,1.505-0.945C60.655,34.146,60.895,33.569,60.875,32.885z     M57.028,32.745c-0.283,0.427-0.769,0.662-1.28,0.521c-0.09-0.023-0.18-0.062-0.268-0.113c-0.604-0.166-1.059-0.727-1.059-1.378    c0-0.475,0.241-0.901,0.605-1.162c0.039-0.048,0.078-0.095,0.121-0.139c0.275-0.292,0.721-0.397,1.103-0.292    c0.348,0.096,0.734,0.416,0.793,0.792c0,0.005,0.001,0.012,0.003,0.017c0.004,0.01,0.009,0.022,0.014,0.034    c0.138,0.22,0.219,0.477,0.219,0.75c0,0.051-0.004,0.103-0.01,0.152C57.27,32.207,57.199,32.486,57.028,32.745z"/>
		<path fill-rule="evenodd" clip-rule="evenodd" d="M47.717,32.351c0,0.1,0.016,0.203-0.001,0.3    c-0.183,1.021-0.514,1.988-1.029,2.891c-0.246,0.431-0.65,0.678-1.089,0.826c-0.792,0.269-1.604,0.374-2.45,0.204    c-0.583-0.115-1.205-0.046-1.754-0.323c-0.322-0.162-0.657-0.333-0.921-0.571c-0.723-0.653-1.31-1.411-1.588-2.369    c-0.028-0.096-0.06-0.192-0.105-0.281c-0.786-1.532,0.038-3.132,0.866-4.024c0.169-0.182,0.441-0.287,0.687-0.375    c0.692-0.248,1.429-0.269,2.147-0.383c0.153-0.025,0.327-0.077,0.438-0.177c0.357-0.323,0.95-0.42,1.424-0.258    c0.796,0.272,1.435,0.82,2.164,1.208c0.149,0.08,0.257,0.256,0.358,0.407C47.461,30.307,47.657,31.312,47.717,32.351z     M44.351,32.871c-0.031-0.159-0.034-0.228-0.059-0.287c-0.275-0.682-0.554-1.338-1.315-1.664    c-0.317-0.137-0.544-0.127-0.763,0.078c-0.634,0.588-0.981,1.377-0.248,2.281c0.576,0.71,0.88,0.784,1.682,0.358    c0.102-0.053,0.22-0.103,0.289-0.188C44.1,33.25,44.237,33.031,44.351,32.871z"/>
		<path fill-rule="evenodd" clip-rule="evenodd" d="M76.091,17.91c0.847,0.122,1.632,0.238,2.42,0.35    c0.604,0.085,1.018,0.445,1.196,0.994c0.195,0.595,0.33,1.216,0.416,1.837c0.088,0.646-0.199,1.226-0.463,1.805    c-0.569,1.25-1.701,1.746-2.882,2.167c-0.199,0.072-0.48,0.064-0.675-0.021c-0.695-0.3-1.402-0.599-2.047-0.991    c-0.774-0.471-1.238-1.191-1.281-2.125c-0.014-0.282-0.087-0.502-0.28-0.715c-0.26-0.286-0.255-0.621,0.012-0.895    c0.611-0.628,1.228-1.252,1.873-1.846c0.183-0.167,0.469-0.225,0.71-0.321c0.139-0.054,0.284-0.089,0.429-0.122    C75.724,17.98,75.93,17.943,76.091,17.91z"/>
		<path fill-rule="evenodd" clip-rule="evenodd" d="M27.18,21.733c0.629-0.04,1.229,0.106,1.831,0.229    c0.444,0.089,0.799,0.33,1.012,0.736c0.147,0.278,0.353,0.458,0.63,0.604c0.834,0.438,1.049,1.463,0.481,2.208    c-0.31,0.406-0.621,0.812-0.942,1.208c-0.248,0.308-0.556,0.513-0.974,0.523c-0.178,0.005-0.357,0.061-0.531,0.105    c-0.53,0.136-1.044,0.158-1.542-0.12c-0.317-0.175-0.639-0.349-0.975-0.483c-0.622-0.247-1.004-0.753-1.376-1.256    c-0.366-0.493-0.644-1.044-0.77-1.658c-0.094-0.456-0.001-0.835,0.328-1.186c0.378-0.401,0.783-0.7,1.357-0.74    C26.201,21.871,26.689,21.793,27.18,21.733z"/>
		<path fill-rule="evenodd" clip-rule="evenodd" fill="none" d="M52.342,58.631c0.049,0.112,0.103,0.223,0.143,0.337    c0.188,0.532,0.363,1.068,0.564,1.595c0.12,0.322,0.175,0.41,0.559,0.855c0.24,0.389,0.24,0.389,0.322,0.602    c0.117,0.304,0.225,0.647,0.596,0.654c0.436,0.008,0.916,0.037,1.159-0.481c0.098-0.209,0.257-0.389,0.358-0.595    c0.264-0.536,0.223-0.787-0.17-1.218c-0.146-0.158-0.293-0.316-0.451-0.465c-0.229-0.213-0.867-2.954-1.311-3.984    c-0.032-0.075-0.049-0.158-0.087-0.232c-0.548-1.092-0.062-1.957,0.581-2.812c0.42-0.556,0.805-1.14,1.173-1.731    c0.472-0.762,0.907-1.545,1.358-2.317c0.058-0.1,0.104-0.21,0.177-0.299c0.672-0.82,1.133-1.752,1.489-2.743    c0.338-0.935,0.759-1.844,0.843-2.854c0.02-0.231,0.043-0.463,0.082-0.692c0.057-0.33,0.159-0.423,0.494-0.441    c0.414-0.021,0.818,0.021,1.232,0.104c0.856,0.175,1.715,0.366,2.605,0.347c0.459-0.009,0.923,0.097,1.384,0.156    c0.193,0.023,0.3,0.144,0.31,0.332c0.023,0.396,0.062,0.793,0.047,1.189c-0.025,0.812-0.096,1.624-0.123,2.435    c-0.054,1.543-0.316,3.033-0.986,4.44c-0.286,0.598-0.501,1.225-0.767,1.832c-0.332,0.759-0.688,1.507-1.019,2.267    c-0.298,0.685-0.572,1.38-0.858,2.068c-0.024,0.062-0.057,0.121-0.071,0.187c-0.277,1.221-1.017,2.214-1.633,3.267    c-0.679,1.16-1.394,2.3-2.052,3.471c-0.65,1.163-1.328,2.302-2.276,3.248c-0.41,0.408-0.901,0.737-1.315,1.142    c-0.457,0.447-1.053,0.673-1.554,1.048c-0.317,0.236-0.692,0.391-1.03,0.599c-0.619,0.382-1.264,0.708-1.954,0.941    c-0.186,0.063-0.353,0.182-0.531,0.273c-0.836,0.436-1.733,0.523-2.614,0.263c-1.035-0.307-1.95-0.839-2.522-1.824    c-0.232-0.402-0.5-0.784-0.758-1.17c-0.696-1.038-1.062-2.21-1.398-3.396c-0.366-1.294-0.796-2.565-1.25-3.834    c-0.694-1.938-1.21-3.933-1.466-5.99c-0.109-0.887-0.33-1.762-0.509-2.64c-0.193-0.944-0.412-1.881-0.592-2.825    c-0.264-1.372-0.222-2.751,0.048-4.11c0.095-0.479,0.438-0.857,0.966-0.963c0.667-0.135,1.337-0.248,2.004-0.38    c0.309-0.062,0.611-0.156,0.919-0.221c0.312-0.065,0.386-0.027,0.469,0.28c0.139,0.513,0.217,1.045,0.391,1.543    c0.311,0.89,0.625,1.781,0.978,2.648c0.379,0.934,0.963,1.782,1.72,2.482c0.876,0.81,1.746,1.628,2.638,2.421    c0.308,0.274,0.663,0.5,1.015,0.719c0.274,0.17,0.403,0.384,0.358,0.7c-0.154,1.067-0.314,2.133-0.468,3.2    c-0.078,0.541-0.127,1.088-0.23,1.624c-0.131,0.683-0.274,1.366-0.462,2.033c-0.318,1.127,0.507,2.056,1.57,2.099    c0.376,0.016,0.763-0.292,0.898-0.745c0.125-0.428,0.207-0.871,0.285-1.312c0.158-0.898,0.297-1.8,0.454-2.698    c0.026-0.148,0.101-0.288,0.151-0.433C52.264,58.627,52.303,58.63,52.342,58.631z M42.948,51.191    c-0.689-0.023-1.02,0.34-0.848,0.756c0.208,0.501,0.583,0.888,1.115,1.062c0.303,0.099,0.648-0.063,0.827-0.327    c0.158-0.234,0.136-0.481-0.069-0.784C43.675,51.459,43.281,51.188,42.948,51.191z M42.762,57.033    c-0.498-0.028-0.774,0.307-0.667,0.729c0.113,0.452,0.801,1.027,1.269,1.069c0.306,0.027,0.498-0.136,0.655-0.364    c0.149-0.218,0.128-0.444-0.014-0.649C43.687,57.364,43.283,57.045,42.762,57.033z M61.977,48.938    c0.39,0.006,0.732-0.322,0.735-0.714c0.002-0.318-0.104-0.624-0.385-0.757c-0.362-0.171-0.766-0.391-1.169-0.123    c-0.13,0.085-0.242,0.282-0.259,0.438C60.843,48.292,61.456,48.929,61.977,48.938z M40.718,49.386    c-0.518,0.001-0.757,0.366-0.54,0.833c0.175,0.375,0.491,0.625,0.824,0.845c0.215,0.141,0.458,0.067,0.665-0.045    c0.212-0.115,0.26-0.336,0.238-0.562C41.852,49.893,41.283,49.383,40.718,49.386z M62.406,51.268    c0.459,0.003,0.788-0.302,0.729-0.676c-0.096-0.614-0.729-1.091-1.335-0.997c-0.224,0.035-0.421,0.134-0.473,0.375    C61.228,50.436,61.924,51.264,62.406,51.268z M59.97,52.618c0.619,0.022,0.966-0.319,0.875-0.771    c-0.104-0.521-0.711-0.993-1.233-0.944c-0.091,0.009-0.191,0.054-0.263,0.114c-0.246,0.206-0.303,0.502-0.169,0.805    C59.354,52.22,59.673,52.46,59.97,52.618z M42.372,54.96c0.406-0.008,0.658-0.251,0.623-0.603    c-0.059-0.568-0.766-1.115-1.324-1.021c-0.229,0.038-0.388,0.207-0.407,0.433C41.218,54.312,41.83,54.969,42.372,54.96z     M60.102,48.29c0.302,0.004,0.423-0.118,0.41-0.416c-0.018-0.381-0.468-0.791-0.842-0.739c-0.09,0.013-0.209,0.11-0.242,0.196    C59.286,47.702,59.705,48.284,60.102,48.29z M61.517,54.69c0.033-0.049,0.116-0.114,0.133-0.196    c0.058-0.278-0.236-0.692-0.521-0.763c-0.227-0.056-0.391,0.082-0.381,0.319C60.757,54.321,61.2,54.716,61.517,54.69z"/>
		<path fill-rule="evenodd" clip-rule="evenodd" fill="none" d="M44.351,32.871c-0.113,0.161-0.25,0.379-0.414,0.578    c-0.069,0.085-0.187,0.135-0.289,0.188c-0.802,0.426-1.106,0.352-1.682-0.358c-0.733-0.903-0.386-1.693,0.248-2.281    c0.219-0.205,0.446-0.214,0.763-0.078c0.761,0.326,1.04,0.982,1.315,1.664C44.317,32.643,44.319,32.712,44.351,32.871z"/>
		<path fill-rule="evenodd" clip-rule="evenodd" d="M42.948,51.191c0.333-0.004,0.727,0.268,1.026,0.706    c0.205,0.303,0.227,0.55,0.069,0.784c-0.179,0.264-0.524,0.426-0.827,0.327c-0.532-0.174-0.907-0.561-1.115-1.062    C41.928,51.531,42.259,51.168,42.948,51.191z"/>
		<path fill-rule="evenodd" clip-rule="evenodd" d="M42.762,57.033c0.521,0.012,0.925,0.331,1.242,0.785    c0.143,0.205,0.164,0.432,0.014,0.649c-0.157,0.229-0.349,0.392-0.655,0.364c-0.468-0.042-1.156-0.617-1.269-1.069    C41.988,57.34,42.264,57.005,42.762,57.033z"/>
		<path fill-rule="evenodd" clip-rule="evenodd" d="M61.977,48.938c-0.521-0.009-1.134-0.646-1.077-1.156    c0.017-0.157,0.129-0.353,0.259-0.438c0.403-0.268,0.807-0.048,1.169,0.123c0.28,0.133,0.387,0.439,0.385,0.757    C62.709,48.616,62.366,48.944,61.977,48.938z"/>
		<path fill-rule="evenodd" clip-rule="evenodd" d="M40.718,49.386c0.564-0.002,1.133,0.507,1.187,1.072    c0.022,0.226-0.026,0.446-0.238,0.562c-0.206,0.112-0.449,0.186-0.665,0.045c-0.333-0.22-0.649-0.47-0.824-0.845    C39.961,49.752,40.2,49.387,40.718,49.386z"/>
		<path fill-rule="evenodd" clip-rule="evenodd" d="M62.406,51.268c-0.482-0.004-1.179-0.832-1.078-1.298    c0.052-0.241,0.249-0.34,0.473-0.375c0.605-0.094,1.239,0.383,1.335,0.997C63.194,50.965,62.865,51.271,62.406,51.268z"/>
		<path fill-rule="evenodd" clip-rule="evenodd" d="M59.97,52.618c-0.297-0.158-0.615-0.398-0.79-0.796    c-0.134-0.303-0.077-0.599,0.169-0.805c0.071-0.06,0.172-0.105,0.263-0.114c0.522-0.048,1.13,0.423,1.233,0.944    C60.936,52.299,60.589,52.641,59.97,52.618z"/>
		<path fill-rule="evenodd" clip-rule="evenodd" d="M42.372,54.96c-0.542,0.009-1.154-0.647-1.108-1.19    c0.019-0.226,0.178-0.395,0.407-0.433c0.559-0.095,1.266,0.452,1.324,1.021C43.03,54.709,42.778,54.952,42.372,54.96z"/>
		<path fill-rule="evenodd" clip-rule="evenodd" d="M60.102,48.29c-0.396-0.006-0.815-0.588-0.674-0.958    c0.033-0.086,0.152-0.183,0.242-0.196c0.374-0.052,0.824,0.357,0.842,0.739C60.524,48.172,60.403,48.294,60.102,48.29z"/>
		<path fill-rule="evenodd" clip-rule="evenodd" d="M61.517,54.69c-0.316,0.025-0.76-0.369-0.769-0.64    c-0.01-0.237,0.154-0.375,0.381-0.319c0.284,0.07,0.578,0.484,0.521,0.763C61.633,54.576,61.55,54.642,61.517,54.69z"/>
	</g>
</g>
</svg>
